<svg viewBox="0 0 400 500" xmlns="http://www.w3.org/2000/svg">
  <!-- Sfondo -->
  <rect width="400" height="500" fill="#FFE4E1"/>
  
  <!-- Cuori concentrici -->
  <!-- Cuore esterno scuro -->
  <path d="M200,480 C80,380 20,300 20,220 C20,140 70,80 130,80 C160,80 190,95 200,120 C210,95 240,80 270,80 C330,80 380,140 380,220 C380,300 320,380 200,480 Z" fill="#9B7BA8"/>
  
  <!-- Cuore 2 -->
  <path d="M200,450 C100,360 50,290 50,220 C50,150 95,105 145,105 C170,105 195,118 200,140 C205,118 230,105 255,105 C305,105 350,150 350,220 C350,290 300,360 200,450 Z" fill="#D4B5E8"/>
  
  <!-- Cuore 3 -->
  <path d="M200,420 C120,340 75,280 75,220 C75,160 113,125 160,125 C183,125 205,135 200,155 C195,135 217,125 240,125 C287,125 325,160 325,220 C325,280 280,340 200,420 Z" fill="#9B7BA8"/>
  
  <!-- Cuore 4 -->
  <path d="M200,390 C140,320 105,270 105,220 C105,170 135,145 170,145 C188,145 205,152 200,168 C195,152 212,145 230,145 C265,145 295,170 295,220 C295,270 260,320 200,390 Z" fill="#D4B5E8"/>
  
  <!-- Cuore 5 interno -->
  <path d="M200,360 C160,300 135,260 135,220 C135,185 155,165 180,165 C191,165 202,170 200,180 C198,170 209,165 220,165 C245,165 265,185 265,220 C265,260 240,300 200,360 Z" fill="#9B7BA8"/>
</svg>
